<?xml version="1.0" encoding="utf-8"?>
<!-- Generator: Adobe Illustrator 23.0.3, SVG Export Plug-In . SVG Version: 6.00 Build 0)  -->
<svg version="1.1" id="Layer_1" xmlns="http://www.w3.org/2000/svg" xmlns:xlink="http://www.w3.org/1999/xlink" x="0px" y="0px"
	 viewBox="0 0 31.9 31.9" style="enable-background:new 0 0 31.9 31.9;" xml:space="preserve">
<style type="text/css">
	.st0{fill:#FFFFFF;stroke:#2F989A;stroke-width:0.4;stroke-miterlimit:10;}
	.st1{fill:#D2C991;}
	.st2{fill:#2F989A;}
	.st3{font-family:'ArialMT';}
	.st4{font-size:12px;}
</style>
<circle class="st0" cx="15.9" cy="15.9" r="15.7"/>
<path class="st1" d="M27.2,9.1V23l-1,0.1v-16c-3.9,0.1-7.5,0.8-10,2.3c-2.5-1.6-6.1-2.2-10-2.3v16l-1-0.1V9.1h-1v15h9.1
	c1.5,0,1.6,1,2.9,1s1.5-1,2.9-1h9.1v-15H27.2z M15.2,22.7c-1.9-0.8-4.1-1.3-7-1.5v-12c2.4,0.2,5,0.7,7,1.9V22.7z M24.2,21.2
	c-2.9,0.2-5.1,0.7-7,1.5V11.1c2-1.2,4.6-1.7,7-1.9C24.2,9.2,24.2,21.2,24.2,21.2z"/>
<text transform="matrix(1 0 0 1 17.4199 20.2078)" class="st2 st3 st4">2</text>
</svg>
